<svg xmlns="http://www.w3.org/2000/svg" viewBox="0 0 500 500"><g id="freepik--background-complete--inject-5"><rect x="43.51" y="41.27" width="146.97" height="264.02" style="fill:#ebebeb"></rect><rect x="49.38" y="48.92" width="133.71" height="248.5" style="fill:#fafafa"></rect><polygon points="196.7 307.67 190.48 305.29 190.48 36.79 196.7 36.79 196.7 307.67" style="fill:#e0e0e0"></polygon><path d="M82.16,209.44l34.73-32.28c4.4-4.09,10.15-8.49,15.81-6.48,2.72,1,4.77,3.3,7.44,4.41,5.33,2.22,11.42-1,15.52-5.06s7.33-9.15,12.3-12.1,12.68-2.58,15.13,2.65v35.13l-50.46,21.6Z" style="fill:#f5f5f5"></path><path d="M49.38,189.25c12.8-5.21,25.57-.78,34.73,9.56,1.93,2.18,3.68,4.69,6.33,5.9,3.59,1.62,7.73.41,11.64,0A29.3,29.3,0,0,1,129.63,218L86.9,239l-37.52-.28Z" style="fill:#e0e0e0"></path><path d="M183.09,189.42c-8.43-4.07-15.84.86-23.62,6.07s-15,11.89-24.12,14c-6.09,1.4-12.62.62-18.52,2.72-12,4.27-18.94,19.51-31.66,20.24-6.91.4-13.1-3.79-19.26-6.93s-11-6.12-16.53-1.92v73.83H183.09Z" style="fill:#ebebeb"></path><rect x="49.38" y="120.41" width="136.61" height="2.65" style="fill:#e0e0e0"></rect><rect x="49.38" y="179.59" width="136.61" height="2.65" style="fill:#e0e0e0"></rect><rect x="49.38" y="238.76" width="136.61" height="2.65" style="fill:#e0e0e0"></rect><rect x="24.87" y="209.72" width="182.74" height="6.76" transform="translate(-96.86 329.34) rotate(-90)" style="fill:#e0e0e0"></rect><rect x="75.13" y="48.92" width="3.06" height="72.81" style="fill:#e0e0e0"></rect><rect x="101.53" y="48.92" width="3.06" height="72.81" style="fill:#e0e0e0"></rect><rect x="127.92" y="48.92" width="3.06" height="72.81" style="fill:#e0e0e0"></rect><rect x="154.32" y="48.92" width="3.06" height="72.81" style="fill:#e0e0e0"></rect><rect x="37.29" y="36.79" width="6.22" height="270.13" style="fill:#e0e0e0"></rect><rect x="37.29" y="34.06" width="159.4" height="7.2" style="fill:#e0e0e0"></rect><rect x="32.88" y="308.55" width="168.02" height="6.71" style="fill:#e0e0e0"></rect><polygon points="190.48 305.29 200.9 308.55 32.88 308.55 43.51 305.29 190.48 305.29" style="fill:#ebebeb"></polygon><path d="M192.21,382.73a16.24,16.24,0,0,1,4-1.77l.8-4,6.73-.17,1,3.95a16.3,16.3,0,0,1,4.09,1.57l3.39-2.25,4.87,4.64L215,388.2a16.29,16.29,0,0,1,1.77,4l4,.8.16,6.72-3.94,1a16.45,16.45,0,0,1-1.57,4.09l2.25,3.38L213,413.07,209.54,411a16.32,16.32,0,0,1-4,1.78l-.8,4-6.72.17L197,413a16.73,16.73,0,0,1-4.09-1.58l-3.38,2.25L184.67,409l2.08-3.49a16.66,16.66,0,0,1-1.78-4l-4-.8-.17-6.73,3.94-1a16.73,16.73,0,0,1,1.58-4.09l-2.25-3.39,4.63-4.87,3.49,2.08Zm3.65,8.94a7.21,7.21,0,1,0,10.2-.26A7.23,7.23,0,0,0,195.86,391.67Z" style="fill:#e0e0e0"></path><path d="M195.86,391.67a5.48,5.48,0,0,1,1.34-1.19,7.14,7.14,0,0,1,4.7-1.15,7.31,7.31,0,0,1,5.81,4,7.44,7.44,0,0,1,.73,4.24,7.33,7.33,0,0,1-6.05,6.35,6.91,6.91,0,0,1-2.22.06,7,7,0,0,1-2-.57,7.4,7.4,0,0,1-3-2.46,7.3,7.3,0,0,1-.36-7.9,5.36,5.36,0,0,1,1.12-1.39,17,17,0,0,0-1,1.47,7.18,7.18,0,0,0-.76,4.62,6.87,6.87,0,0,0,1.26,3,7,7,0,0,0,2.89,2.32,7,7,0,0,0,4,.47,7,7,0,0,0,5.72-6,6.42,6.42,0,0,0,0-2.1,6.55,6.55,0,0,0-.62-1.92,7,7,0,0,0-5.51-3.89,7.2,7.2,0,0,0-4.58,1C196.32,391.21,195.9,391.7,195.86,391.67Z" style="fill:#e0e0e0"></path><path d="M192.21,382.73l-.22-.11-.67-.38-2.63-1.53h.08l-4.61,4.89v-.13l2.27,3.38,0,.06,0,.06a16.4,16.4,0,0,0-1.56,4.07v.08l-.08,0-3.94,1L181,394q.09,3.18.18,6.72l-.13-.15,4,.79.1,0,0,.1a16.37,16.37,0,0,0,1.76,4l.06.09-.06.1-2.07,3.49,0-.23,4.88,4.63-.24,0,3.38-2.25.1-.07.11.06a16.23,16.23,0,0,0,4,1.55l.12,0,0,.12c.31,1.23.65,2.58,1,3.94l-.21-.15,6.73-.17-.2.16c.25-1.26.53-2.62.8-4l0-.13.12,0a16.58,16.58,0,0,0,4-1.75h0l.11-.06.11.06c1.17.7,2.33,1.4,3.49,2.08l-.26,0,4.64-4.87,0,.25-2.25-3.38-.07-.1.06-.11a16.47,16.47,0,0,0,1.56-4l0-.12.11,0,3.95-1-.15.19q-.09-3.44-.16-6.72l.15.18-4-.8-.11,0,0-.11a16.54,16.54,0,0,0-1.76-4l0-.09,0-.1,2.09-3.48,0,.21-4.86-4.65.19,0-3.38,2.24-.08.05-.08,0a16.18,16.18,0,0,0-4-1.57l-.08,0,0-.08c-.36-1.43-.68-2.73-1-3.95l.12.1-6.73.13.09-.07c-.33,1.59-.6,2.89-.82,4v0h0a17.93,17.93,0,0,0-3.07,1.2l-.72.39-.24.12.23-.15c.15-.1.38-.24.7-.42a16.5,16.5,0,0,1,3.06-1.27l0,.05.77-4,0-.07H197l6.72-.2h.1l0,.09c.31,1.22.64,2.51,1,3.94l-.1-.1a16.8,16.8,0,0,1,4.14,1.58h-.16l3.38-2.26.1-.07.1.09,4.88,4.62.1.1-.07.12c-.68,1.13-1.37,2.29-2.08,3.49v-.19a17,17,0,0,1,1.8,4l-.14-.13,4,.8.15,0V393c.06,2.19.11,4.43.17,6.72v.16l-.16,0-3.94,1,.15-.15a16.56,16.56,0,0,1-1.59,4.14v-.21l2.25,3.39.09.13-.11.12-4.64,4.87-.11.12-.14-.08-3.49-2.08h.21a16.5,16.5,0,0,1-4.06,1.79l.15-.15c-.28,1.37-.55,2.72-.8,4l0,.16h-.16l-6.73.16h-.16l0-.15-1-3.94.15.14a16.9,16.9,0,0,1-4.14-1.6h.2l-3.38,2.25-.13.09-.11-.11-4.87-4.64-.11-.1.08-.13,2.09-3.49v.19a16.57,16.57,0,0,1-1.79-4.06l.13.12-4-.8-.12,0v-.13c0-2.36-.1-4.61-.15-6.72v-.12l.11,0,3.95-1-.1.1a16.6,16.6,0,0,1,1.6-4.11V389L184,385.58l-.05-.07.06-.06,4.67-4.85,0,0,0,0,2.57,1.58.66.41Z" style="fill:#e0e0e0"></path><path d="M160.52,339.75a17.38,17.38,0,0,1,4.26-1.89l.86-4.24,7.15-.18,1.06,4.2a17.71,17.71,0,0,1,4.36,1.68l3.6-2.4,5.18,4.93-2.21,3.72a17.66,17.66,0,0,1,1.89,4.27l4.24.85.18,7.15-4.2,1.06a17.55,17.55,0,0,1-1.68,4.36l2.4,3.6L182.68,372,179,369.83a17.28,17.28,0,0,1-4.27,1.89l-.85,4.24-7.15.18-1.06-4.2a17.55,17.55,0,0,1-4.36-1.68l-3.6,2.4-5.18-4.93L154.7,364a17.28,17.28,0,0,1-1.89-4.27l-4.24-.85-.18-7.15,4.2-1.06a17.92,17.92,0,0,1,1.67-4.36l-2.39-3.6,4.93-5.18,3.72,2.21Zm3.88,9.51a7.68,7.68,0,1,0,10.86-.27A7.69,7.69,0,0,0,164.4,349.26Z" style="fill:#f5f5f5"></path><path d="M164.4,349.26a5.91,5.91,0,0,1,1.42-1.27,7.71,7.71,0,0,1,5-1.22,7.86,7.86,0,0,1,6.91,6.42,7.51,7.51,0,0,1,.06,2.37,7.84,7.84,0,0,1-6.44,6.76,7.21,7.21,0,0,1-2.36.05,7.33,7.33,0,0,1-2.19-.6,8,8,0,0,1-3.21-2.62,7.8,7.8,0,0,1-1.35-3.35,7.65,7.65,0,0,1,1-5.06,5.61,5.61,0,0,1,1.19-1.48,17.57,17.57,0,0,0-1,1.57,7.7,7.7,0,0,0-.82,4.92,7.5,7.5,0,0,0,1.34,3.18A7.63,7.63,0,0,0,167,361.4,7.45,7.45,0,0,0,169,362a7,7,0,0,0,2.24-.07,7.42,7.42,0,0,0,6.08-6.39,6.94,6.94,0,0,0-.05-2.23,7,7,0,0,0-.66-2,7.52,7.52,0,0,0-2.61-3,7.59,7.59,0,0,0-8.13-.13C164.88,348.78,164.44,349.3,164.4,349.26Z" style="fill:#f5f5f5"></path><path d="M160.52,339.75a1,1,0,0,1-.24-.12l-.71-.41-2.8-1.62.08,0c-1.25,1.34-2.9,3.1-4.9,5.22v-.14l2.41,3.59,0,.06,0,.07a17.16,17.16,0,0,0-1.65,4.33l0,.08-.09,0-4.19,1.07.12-.16q.09,3.39.19,7.16l-.14-.17,4.25.85.1,0,0,.1a17.16,17.16,0,0,0,1.87,4.22l.06.1-.06.1-2.21,3.72,0-.25,5.19,4.93-.25,0,3.6-2.4.1-.07.11.06a16.92,16.92,0,0,0,4.31,1.65l.12,0,0,.13c.34,1.31.7,2.75,1.07,4.19l-.22-.16,7.16-.18-.21.18c.27-1.34.56-2.79.85-4.25l0-.13.13,0a17.4,17.4,0,0,0,4.21-1.87h0l.11-.07.11.07,3.72,2.21-.27,0,4.93-5.18,0,.27-2.4-3.6-.07-.11.06-.12a17.09,17.09,0,0,0,1.66-4.3l0-.12.13,0,4.19-1.06-.15.21c-.06-2.45-.12-4.83-.17-7.16l.16.2-4.24-.86-.12,0,0-.11a17.26,17.26,0,0,0-1.87-4.22l-.06-.1.06-.1c.77-1.27,1.5-2.51,2.23-3.71l0,.23L181.69,337l.21,0-3.61,2.39-.08.05-.08-.05a17.64,17.64,0,0,0-4.31-1.67l-.09,0,0-.09c-.38-1.52-.72-2.9-1-4.2l.13.1-7.16.15.09-.08-.88,4.24v0h0a18.43,18.43,0,0,0-3.26,1.28l-.77.41a1,1,0,0,1-.25.13l.24-.16c.16-.1.4-.26.75-.44a17,17,0,0,1,3.25-1.36l0,.06c.22-1.16.49-2.55.82-4.25v-.08h.08l7.16-.21h.1l0,.1L174,337.6l-.1-.1a17.26,17.26,0,0,1,4.39,1.68h-.16l3.59-2.4.12-.08.09.1c1.65,1.55,3.37,3.19,5.2,4.92l.1.1-.07.13c-.72,1.2-1.45,2.44-2.21,3.72v-.2a17.86,17.86,0,0,1,1.92,4.31l-.15-.14,4.24.85.16,0v.16c.06,2.33.12,4.71.19,7.16V358l-.16.05-4.2,1.06.16-.16a17.57,17.57,0,0,1-1.7,4.41v-.22c.8,1.19,1.59,2.39,2.4,3.6l.1.14-.12.13-4.94,5.18-.12.13-.15-.09L178.85,370h.22a17.82,17.82,0,0,1-4.31,1.91l.15-.17c-.29,1.46-.58,2.9-.85,4.24l0,.17h-.17l-7.16.17h-.17l0-.17c-.37-1.45-.73-2.88-1.06-4.2l.16.16a18,18,0,0,1-4.41-1.7h.22l-3.61,2.39-.13.09-.12-.11-5.18-4.94-.11-.11.08-.13,2.22-3.72v.2a17.8,17.8,0,0,1-1.9-4.31l.14.12-4.25-.86-.13,0v-.14c-.06-2.51-.11-4.91-.16-7.16v-.12l.12,0,4.2-1-.1.1a17.68,17.68,0,0,1,1.7-4.38v.13l-2.39-3.61,0-.07.06-.07,5-5.15,0,0,.05,0,2.74,1.67.7.44Z" style="fill:#f5f5f5"></path><path d="M227.27,378h0l-1.63-6.47a26.78,26.78,0,0,1-6.71-2.58l-5.56,3.7h0l-8-7.63h0l3.41-5.72a27.2,27.2,0,0,1-2.91-6.57l-6.55-1.31v0L199,340.33h0l6.46-1.64a26.89,26.89,0,0,1,2.59-6.7l-3.7-5.56h0l7.62-8h0l5.72,3.41a27,27,0,0,1,6.57-2.91l1.31-6.55h0l11.06-.27h0l1.63,6.46a26.81,26.81,0,0,1,6.71,2.59l5.56-3.71h0l8,7.63v0l-3.41,5.72a26.86,26.86,0,0,1,2.91,6.57l6.55,1.31v0l.27,11.06h0l-6.46,1.63a27,27,0,0,1-2.59,6.71l3.7,5.56h0l-7.62,8h0l-5.72-3.41a27.24,27.24,0,0,1-6.57,2.91l-1.31,6.55h0Zm-8.34-9.11h0a26.88,26.88,0,0,0,6.72,2.59h0l1.64,6.46,11-.27,1.32-6.54h0a26.72,26.72,0,0,0,6.58-2.91h0l5.72,3.41,7.59-8-3.69-5.55h0a26.88,26.88,0,0,0,2.59-6.72h0l6.46-1.64-.27-11-6.54-1.31h0a26.72,26.72,0,0,0-2.91-6.58h0l3.41-5.72-8-7.59-5.55,3.69h0a26.88,26.88,0,0,0-6.72-2.59h0l-1.64-6.46-11,.27L224.37,319h0a26.72,26.72,0,0,0-6.58,2.91h0L212,318.46l-7.59,8,3.69,5.55h0a26.88,26.88,0,0,0-2.59,6.72h0l-6.46,1.63.27,11,6.54,1.32h0a26.88,26.88,0,0,0,2.91,6.58h0L205.4,365l8,7.59Zm13.41-12.34a12.52,12.52,0,1,1,.3,0Zm-8.58-20h0a11.82,11.82,0,0,0,8.56,20h.3a11.83,11.83,0,0,0-.29-23.65h-.3a11.76,11.76,0,0,0-8.27,3.67Z" style="fill:#e0e0e0"></path><path d="M223.76,336.53a9.14,9.14,0,0,1,2.2-2,11.77,11.77,0,0,1,7.71-1.88,12,12,0,0,1,9.55,6.59,11.49,11.49,0,0,1,1.11,3.32,11.36,11.36,0,0,1,.09,3.64,12.09,12.09,0,0,1-9.93,10.44,12.32,12.32,0,0,1-7-.85,12.12,12.12,0,0,1-5-4.05,12,12,0,0,1-.59-13,9,9,0,0,1,1.84-2.28c.07.05-.71.78-1.61,2.41a11.85,11.85,0,0,0-1.25,7.6,11.54,11.54,0,0,0,6.82,8.71,11.53,11.53,0,0,0,6.65.77,11.47,11.47,0,0,0,9.39-9.86,11.06,11.06,0,0,0-.07-3.45,10.69,10.69,0,0,0-1-3.15,11.55,11.55,0,0,0-9-6.39,11.78,11.78,0,0,0-7.52,1.63C224.51,335.78,223.82,336.59,223.76,336.53Z" style="fill:#ebebeb"></path><path d="M217.77,321.85a2.18,2.18,0,0,1-.37-.19l-1.1-.62L212,318.53l.14,0-7.57,8,0-.21c1.12,1.68,2.38,3.55,3.72,5.54l.06.1,0,.11a26.57,26.57,0,0,0-2.55,6.67l0,.13-.13,0-6.47,1.65.18-.24c.09,3.48.19,7.17.3,11l-.22-.25,6.55,1.3.17,0,.05.17a27.08,27.08,0,0,0,2.89,6.51l.1.15-.09.15c-1.06,1.78-2.23,3.74-3.41,5.74l-.06-.38,8,7.61-.39,0,5.55-3.7.17-.11.17.1a27,27,0,0,0,6.64,2.55l.19,0,.05.2c.52,2,1.08,4.24,1.64,6.47l-.33-.25,11-.28-.32.27c.42-2.07.86-4.3,1.31-6.54l0-.21.2-.05a26.82,26.82,0,0,0,6.5-2.88h0l.18-.11.18.1,5.73,3.42-.42.06,7.61-8,0,.42-3.7-5.56-.11-.17.1-.17a26.9,26.9,0,0,0,2.56-6.64l.05-.19.19-.05,6.47-1.63-.24.32q-.14-5.65-.26-11l.25.29-6.55-1.32-.18,0-.05-.17A27.13,27.13,0,0,0,255,331l-.1-.15.09-.15,3.43-5.73.05.35-8-7.63.33,0-5.57,3.68-.12.08-.13-.07a26.82,26.82,0,0,0-6.65-2.58l-.14,0,0-.13c-.59-2.36-1.11-4.48-1.61-6.48l.2.15-11.05.22.15-.12c-.54,2.61-1,4.75-1.36,6.54V319l-.07,0a28.3,28.3,0,0,0-5,2l-1.19.63a2,2,0,0,1-.39.2s.13-.09.37-.25.63-.39,1.16-.68a26.17,26.17,0,0,1,5-2.09l-.07.08c.34-1.78.76-3.93,1.27-6.55l0-.12h.12l11.05-.32h.16l0,.16,1.65,6.47-.16-.17a27.49,27.49,0,0,1,6.78,2.6h-.25l5.55-3.72.17-.11.15.14,8,7.6.16.16-.11.19L255.46,331v-.31a27.41,27.41,0,0,1,3,6.66l-.24-.22,6.55,1.31.25.05v.25q.13,5.38.29,11V350l-.25.06-6.47,1.65.24-.25a27.46,27.46,0,0,1-2.62,6.81v-.35l3.7,5.56.15.22-.19.19-7.61,8-.19.19-.23-.13-5.73-3.42h.34a27.58,27.58,0,0,1-6.66,2.95l.24-.26c-.45,2.25-.9,4.48-1.32,6.55l0,.26h-.27l-11,.26H227l-.06-.26c-.57-2.23-1.12-4.44-1.64-6.47l.25.24a27.72,27.72,0,0,1-6.8-2.63h.33l-5.56,3.69-.21.14-.18-.17-8-7.63-.18-.17.13-.2,3.42-5.73v.3a27.09,27.09,0,0,1-2.93-6.66l.21.2-6.54-1.33-.21,0v-.21c-.08-3.88-.17-7.57-.24-11v-.19l.19-.05,6.48-1.61-.17.16A27.05,27.05,0,0,1,208,331.9v.2l-3.67-5.57-.08-.11.1-.1,7.66-8,.06-.06.07,0,4.23,2.59,1.08.68A2.67,2.67,0,0,1,217.77,321.85Z" style="fill:#ebebeb"></path><path d="M451.49,267.47a14.82,14.82,0,0,1-3.63,1.6l-.72,3.61-6.08.15-.9-3.56a15.07,15.07,0,0,1-3.7-1.43l-3.06,2-4.4-4.2,1.88-3.15a14.82,14.82,0,0,1-1.6-3.63l-3.61-.72-.15-6.08,3.57-.9a15,15,0,0,1,1.42-3.7l-2-3.06,4.2-4.4,3.15,1.88a14.82,14.82,0,0,1,3.63-1.6l.72-3.61,6.08-.15.9,3.57a14.89,14.89,0,0,1,3.7,1.42l3.06-2,4.4,4.2-1.88,3.15a14.82,14.82,0,0,1,1.6,3.63l3.61.72.15,6.08-3.57.9a14.89,14.89,0,0,1-1.42,3.7l2,3.06-4.2,4.4-3.15-1.88Zm-3.3-8.08a6.52,6.52,0,1,0-9.22.23A6.52,6.52,0,0,0,448.19,259.39Z" style="fill:#e0e0e0"></path><path d="M448.19,259.39a4.88,4.88,0,0,1-1.21,1.08,6.63,6.63,0,0,1-7.15,0,6.74,6.74,0,0,1-2.35-2.62,6.26,6.26,0,0,1-.61-1.83,6.44,6.44,0,0,1-.05-2,6.64,6.64,0,0,1,5.47-5.74,6.12,6.12,0,0,1,2-.05,6.33,6.33,0,0,1,1.86.52,6.71,6.71,0,0,1,2.73,2.22,6.63,6.63,0,0,1,1.15,2.85,6.45,6.45,0,0,1-.83,4.29,4.75,4.75,0,0,1-1,1.26s.39-.43.89-1.33a6.55,6.55,0,0,0,.69-4.18,6.41,6.41,0,0,0-3.76-4.8,6.5,6.5,0,0,0-3.66-.42,6.32,6.32,0,0,0-5.17,5.43,6,6,0,0,0,0,1.9,6,6,0,0,0,.57,1.73,6.42,6.42,0,0,0,9.11,2.62A14.65,14.65,0,0,0,448.19,259.39Z" style="fill:#e0e0e0"></path><path d="M451.49,267.47a.92.92,0,0,1,.2.1l.61.35,2.37,1.38h-.07l4.17-4.43V265L456.71,262l0-.06,0-.05a15.05,15.05,0,0,0,1.41-3.68v-.07l.07,0,3.57-.91-.1.13c-.06-1.91-.11-3.94-.17-6.08l.12.14-3.61-.71-.09,0,0-.09a15,15,0,0,0-1.6-3.58l-.05-.09.05-.08,1.88-3.16,0,.21-4.41-4.19.21,0-3.05,2-.09.06-.1,0a15,15,0,0,0-3.65-1.41l-.11,0,0-.11c-.28-1.12-.59-2.33-.9-3.56l.18.14-6.08.15.18-.15c-.23,1.14-.47,2.37-.72,3.6l0,.11-.11,0a14.29,14.29,0,0,0-3.58,1.58h0l-.1.06-.09-.06-3.16-1.88.23,0-4.19,4.4,0-.23,2,3.06.06.09-.05.1a14.66,14.66,0,0,0-1.41,3.65l0,.11-.11,0-3.56.89.13-.17q.07,3.1.14,6.08l-.13-.17,3.6.73.1,0,0,.1a14.6,14.6,0,0,0,1.58,3.58l.05.09-.05.08c-.65,1.08-1.27,2.13-1.89,3.15l0-.19,4.39,4.2h-.18l3.07-2,.07-.05.07,0a15.05,15.05,0,0,0,3.66,1.43h.07l0,.08c.32,1.29.61,2.46.89,3.56l-.11-.08,6.08-.13-.08.07c.3-1.44.54-2.61.74-3.6v0h0a16.13,16.13,0,0,0,2.77-1.09l.65-.35a1.08,1.08,0,0,1,.22-.11l-.2.14-.64.37a14.06,14.06,0,0,1-2.77,1.15l0,0-.7,3.6v.07h-.07l-6.08.18H441l0-.08c-.28-1.11-.58-2.27-.91-3.56l.09.08A14.67,14.67,0,0,1,436.4,268h.14L433.48,270l-.09.06-.08-.08-4.42-4.18-.09-.09.07-.11,1.87-3.15v.16a14.93,14.93,0,0,1-1.62-3.66l.12.12-3.6-.72-.14,0v-.14c-.05-2-.1-4-.16-6.07V252l.14,0L429,251l-.13.13a15.45,15.45,0,0,1,1.44-3.75v.19l-2-3-.08-.13.1-.1,4.19-4.41.1-.11.13.08,3.16,1.88h-.19a15,15,0,0,1,3.66-1.62l-.13.14.73-3.6,0-.15h.15l6.07-.15h.15l0,.14c.31,1.23.61,2.45.89,3.56l-.13-.13a14.78,14.78,0,0,1,3.74,1.45h-.18l3.06-2,.12-.08.1.1,4.4,4.2.09.09-.07.11c-.65,1.1-1.3,2.18-1.88,3.15v-.16a15,15,0,0,1,1.61,3.66l-.12-.1,3.61.73.11,0v.12c0,2.13.09,4.16.13,6.08v.1l-.1,0-3.57.89.09-.09a15.24,15.24,0,0,1-1.44,3.72v-.11l2,3.06,0,.07-.06.05c-1.71,1.79-3.13,3.26-4.21,4.38l0,0,0,0L452.29,268l-.6-.37Z" style="fill:#e0e0e0"></path><path d="M400,252.11v0l1.45,5.72a24.35,24.35,0,0,1,5.94,2.29l4.92-3.28h0l7.1,6.76h0l-3,5.07a24.18,24.18,0,0,1,2.58,5.81l5.8,1.17h0l.24,9.8h0L419.29,287a24.2,24.2,0,0,1-2.29,5.94l3.28,4.93h0l-6.76,7.1h0l-5.07-3a23.7,23.7,0,0,1-5.82,2.58l-1.16,5.81h0l-9.8.24v0l-1.45-5.72a24.13,24.13,0,0,1-5.93-2.29l-4.93,3.28h0l-7.1-6.76h0l3-5.07a23.67,23.67,0,0,1-2.57-5.82l-5.81-1.16v0l-.24-9.79h0l5.73-1.44a23.63,23.63,0,0,1,2.28-5.94l-3.27-4.93h0l6.75-7.1h0l5.06,3a24.22,24.22,0,0,1,5.82-2.57l1.17-5.81h0Zm7.39,8.07h0a23.9,23.9,0,0,0-5.95-2.3h0L400,252.15l-9.75.24-1.17,5.8h0a24.32,24.32,0,0,0-5.83,2.58h0l-5.07-3-6.73,7.07,3.28,4.92h0a24.27,24.27,0,0,0-2.29,5.95h0l-5.72,1.45.24,9.75,5.79,1.16h0a23.6,23.6,0,0,0,2.58,5.83h0l-3,5.07,7.07,6.72,4.91-3.27h0a23.49,23.49,0,0,0,5.95,2.29h0l1.44,5.72,9.76-.24,1.16-5.8h0a24.32,24.32,0,0,0,5.83-2.58h0l5.06,3,6.73-7.07L417,292.89h0a23.87,23.87,0,0,0,2.29-5.95h0l5.72-1.45-.24-9.75-5.8-1.16h0a23.8,23.8,0,0,0-2.59-5.83h0l3-5.07-7.07-6.72Zm-11.88,10.94a10.21,10.21,0,1,1-.26,0Zm7.6,17.75h0a10.48,10.48,0,0,0-7.59-17.7h-.26a10.48,10.48,0,0,0,.25,21h.26a10.42,10.42,0,0,0,7.34-3.25Z" style="fill:#e0e0e0"></path><path d="M403.12,288.87a7.81,7.81,0,0,1-1.94,1.73,10.47,10.47,0,0,1-6.84,1.67,10.64,10.64,0,0,1-8.46-5.83,10.08,10.08,0,0,1-1-2.94,10.26,10.26,0,0,1-.08-3.23,10.71,10.71,0,0,1,8.8-9.25,10.32,10.32,0,0,1,3.23-.08,10.21,10.21,0,0,1,3,.83,10.7,10.7,0,0,1,4.4,3.59,10.59,10.59,0,0,1,.52,11.49,7.91,7.91,0,0,1-1.63,2,24.86,24.86,0,0,0,1.43-2.14,10.43,10.43,0,0,0,1.11-6.72,10.25,10.25,0,0,0-6.05-7.73,10.42,10.42,0,0,0-5.89-.68,10.18,10.18,0,0,0-8.31,8.74,9.5,9.5,0,0,0,.06,3.06,9.33,9.33,0,0,0,.91,2.79,10.28,10.28,0,0,0,8,5.66,10.47,10.47,0,0,0,6.66-1.44A23.3,23.3,0,0,0,403.12,288.87Z" style="fill:#ebebeb"></path><path d="M408.43,301.87l.33.17,1,.56,3.83,2.22-.12,0c1.71-1.83,4-4.23,6.7-7.13v.19l-3.3-4.91-.06-.09.05-.09a24.2,24.2,0,0,0,2.26-5.92l0-.11.11,0,5.73-1.47-.16.21c-.08-3.08-.17-6.35-.26-9.78l.19.23-5.8-1.16-.15,0,0-.14a24.35,24.35,0,0,0-2.57-5.77l-.08-.13.08-.14,3-5.08,0,.33-7.09-6.73.35,0-4.92,3.28-.15.09-.15-.08a23.56,23.56,0,0,0-5.88-2.26l-.17,0,0-.17c-.45-1.8-1-3.76-1.45-5.74l.29.23-9.78.24.29-.24-1.17,5.8,0,.18-.18,0a23.92,23.92,0,0,0-5.75,2.55h0l-.15.1-.16-.1L378,258l.37-.05L371.61,265l0-.37,3.27,4.92.1.15-.08.16a23.31,23.31,0,0,0-2.27,5.88l0,.17-.18,0-5.73,1.45.22-.29c.07,3.34.15,6.61.23,9.79l-.23-.27,5.8,1.17.16,0,.05.15a23.68,23.68,0,0,0,2.55,5.78l.08.13-.08.14-3,5.07,0-.31,7.07,6.76-.28,0,4.93-3.26.11-.07.11.06a23.86,23.86,0,0,0,5.89,2.29l.12,0,0,.11,1.43,5.74-.18-.13,9.79-.2-.13.11c.48-2.31.87-4.21,1.2-5.79v-.06l.06,0a24.73,24.73,0,0,0,4.46-1.75l1.05-.56.35-.18a2.19,2.19,0,0,1-.33.23q-.33.21-1,.6a23.88,23.88,0,0,1-4.46,1.85l.07-.07c-.31,1.58-.68,3.48-1.13,5.8l0,.11h-.1l-9.79.29h-.14l0-.14c-.46-1.77-.94-3.65-1.47-5.73l.14.15a24.28,24.28,0,0,1-6-2.3h.23l-4.92,3.29-.15.1-.14-.13-7.1-6.73-.14-.14.1-.17,3-5.08v.27a24.54,24.54,0,0,1-2.62-5.9l.21.19-5.8-1.15-.22-.05v-.22q-.12-4.77-.25-9.78v-.23l.22-.06,5.73-1.45-.21.21a24,24,0,0,1,2.32-6v.3L371.14,265l-.13-.2.16-.17,6.75-7.09.16-.17.21.12,5.08,3h-.31a24.4,24.4,0,0,1,5.9-2.62l-.21.23,1.17-5.8.05-.23h.23l9.79-.23h.23l.06.23c.5,2,1,3.94,1.45,5.73l-.22-.21a24.39,24.39,0,0,1,6,2.33h-.3l4.93-3.27.18-.12.16.15c2.46,2.34,4.86,4.63,7.08,6.76l.16.14-.11.19-3,5.07v-.27a24.12,24.12,0,0,1,2.6,5.9l-.19-.17,5.8,1.17.19,0v.19c.08,3.43.15,6.7.22,9.78v.17l-.16.05-5.74,1.43.14-.15a23.8,23.8,0,0,1-2.33,6v-.19l3.26,4.94.07.1-.09.09c-2.76,2.87-5.05,5.24-6.78,7.05l-.06,0-.06,0-3.74-2.29-1-.6Z" style="fill:#ebebeb"></path><rect x="408.31" y="53.92" width="8.07" height="40.15" transform="translate(-0.39 2.21) rotate(-0.31)" style="fill:#e0e0e0"></rect><rect x="338.36" y="54.06" width="20.9" height="22.17" transform="translate(-0.34 1.87) rotate(-0.31)" style="fill:#ebebeb"></rect><rect x="359.15" y="53.95" width="20.9" height="22.17" transform="translate(-0.34 1.98) rotate(-0.31)" style="fill:#f5f5f5"></rect><path d="M338.33,60.24q20.84.16,41.69-.2a.22.22,0,0,0,0-.44q-20.83-.12-41.69.26a.19.19,0,0,0,0,.38Z" style="fill:#e0e0e0"></path><rect x="325.32" y="75.9" width="37.97" height="18.06" transform="translate(-0.45 1.85) rotate(-0.31)" style="fill:#ebebeb"></rect><rect x="363.1" y="75.7" width="37.97" height="18.06" transform="translate(-0.45 2.05) rotate(-0.31)" style="fill:#f5f5f5"></rect><path d="M325.29,81c25.23.28,50.54,0,75.76-.38a.22.22,0,0,0,0-.44c-25.22-.13-50.53-.12-75.75.44a.19.19,0,0,0,0,.38Z" style="fill:#e0e0e0"></path><rect x="311.1" y="94.07" width="147.09" height="6.47" style="fill:#e0e0e0"></rect><rect x="335.18" y="97.18" width="5.97" height="22.08" style="fill:#e0e0e0"></rect><rect x="424.32" y="97.18" width="5.97" height="22.08" style="fill:#e0e0e0"></rect><rect x="416.23" y="38.95" width="8.07" height="55.22" transform="translate(-0.35 2.25) rotate(-0.31)" style="fill:#ebebeb"></rect><rect x="424.34" y="49.24" width="12.54" height="44.75" transform="translate(-0.38 2.31) rotate(-0.31)" style="fill:#f5f5f5"></rect><path d="M436.67,57.83a93.71,93.71,0,0,1-12.54,0,89.46,89.46,0,0,1,12.54,0Z" style="fill:#e0e0e0"></path><path d="M436.67,56a93.71,93.71,0,0,1-12.54,0,89.46,89.46,0,0,1,12.54,0Z" style="fill:#e0e0e0"></path><path d="M436.67,87.22a89.46,89.46,0,0,1-12.54,0,93.71,93.71,0,0,1,12.54,0Z" style="fill:#e0e0e0"></path><path d="M436.67,85.34a89.46,89.46,0,0,1-12.54,0,93.71,93.71,0,0,1,12.54,0Z" style="fill:#e0e0e0"></path><path d="M430.6,81.24c-.12,0-.21-4.51-.21-10.08s.09-10.09.21-10.09.22,4.52.22,10.09S430.72,81.24,430.6,81.24Z" style="fill:#e0e0e0"></path><rect x="436.81" y="60.19" width="13.65" height="33.78" style="fill:#ebebeb"></rect><path d="M422.31,48.35A2.32,2.32,0,1,1,420,46,2.32,2.32,0,0,1,422.31,48.35Z" style="fill:#e0e0e0"></path><rect x="419.28" y="54.73" width="1.43" height="32.85" style="fill:#e0e0e0"></rect><polygon points="350.6 433 356.06 468.92 387.82 468.92 395.19 433.52 350.6 433" style="fill:#ebebeb"></polygon><path d="M390.75,456c0,.11-8.13.19-18.17.19s-18.18-.08-18.18-.19,8.14-.18,18.18-.18S390.75,455.92,390.75,456Z" style="fill:#fafafa"></path><path d="M390.88,454.26c0,.1-8.2.18-18.3.18s-18.3-.08-18.3-.18,8.19-.19,18.3-.19S390.88,454.15,390.88,454.26Z" style="fill:#fafafa"></path><path d="M390.81,452.26c0,.1-8.19.19-18.29.19s-18.3-.09-18.3-.19,8.19-.19,18.3-.19S390.81,452.16,390.81,452.26Z" style="fill:#fafafa"></path><path d="M359.71,466.87a28.12,28.12,0,0,1-1-4.52,28.7,28.7,0,0,1-.61-4.59,58.93,58.93,0,0,1,1.58,9.11Z" style="fill:#fafafa"></path><path d="M361.87,466.49a34.72,34.72,0,0,1-.39-4.41,35.17,35.17,0,0,1-.21-4.43,21.8,21.8,0,0,1,.58,4.4A21.09,21.09,0,0,1,361.87,466.49Z" style="fill:#fafafa"></path><path d="M365.81,466.49A22.34,22.34,0,0,1,365,462a21.94,21.94,0,0,1-.24-4.6,37.7,37.7,0,0,1,.61,4.55A39.56,39.56,0,0,1,365.81,466.49Z" style="fill:#fafafa"></path><path d="M368.57,466.68a22.45,22.45,0,0,1-.44-4.6,22.85,22.85,0,0,1,.14-4.61,38.56,38.56,0,0,1,.24,4.6A37.5,37.5,0,0,1,368.57,466.68Z" style="fill:#fafafa"></path><path d="M373.47,466.49a24.3,24.3,0,0,1-.34-4.36,26.39,26.39,0,0,1,0-4.38,26.93,26.93,0,0,1,.34,4.37A26.18,26.18,0,0,1,373.47,466.49Z" style="fill:#fafafa"></path><path d="M377,466.68a55.07,55.07,0,0,1,.07-9,26.53,26.53,0,0,1,.15,4.51A28.08,28.08,0,0,1,377,466.68Z" style="fill:#fafafa"></path><path d="M380.39,466.2a30.71,30.71,0,0,1,.27-4.72,30.37,30.37,0,0,1,.64-4.68,27.94,27.94,0,0,1-.27,4.72A30.12,30.12,0,0,1,380.39,466.2Z" style="fill:#fafafa"></path><path d="M384.71,465.73a16,16,0,0,1,.54-4,15.48,15.48,0,0,1,1.18-3.87,36.65,36.65,0,0,1-.82,3.95A32.64,32.64,0,0,1,384.71,465.73Z" style="fill:#fafafa"></path><path d="M381.65,362.11s0,.06,0,.18l-.15.5-.61,1.94c-.27.84-.59,1.87-.93,3.08s-.77,2.56-1.14,4.09-.84,3.19-1.24,5-.81,3.75-1.23,5.79c-.76,4.1-1.45,8.62-1.94,13.41s-.68,9.36-.74,13.53c0,2.08,0,4.06.05,5.91s.13,3.58.23,5.15.21,3,.31,4.24.21,2.32.31,3.2.16,1.53.21,2c0,.21,0,.38,0,.52s0,.19,0,.19a1.32,1.32,0,0,1,0-.18c0-.14-.05-.31-.08-.52-.07-.49-.16-1.16-.28-2s-.26-1.95-.37-3.2-.28-2.67-.37-4.24-.22-3.3-.27-5.16-.08-3.84-.09-5.93c0-4.17.25-8.76.72-13.56s1.19-9.33,2-13.43c.42-2.05.8-4,1.26-5.8s.86-3.48,1.28-5,.84-2.88,1.2-4.08.7-2.23,1-3.06.5-1.45.67-1.92l.18-.5A1,1,0,0,1,381.65,362.11Z" style="fill:#ebebeb"></path><path d="M375.92,384.35a11.82,11.82,0,0,1,4.94-6.23,2.8,2.8,0,0,1,2.61-.48c1.11.53,1.2,2.09.87,3.28a8.71,8.71,0,0,1-3.6,4.9,7.31,7.31,0,0,1-5.39,1.36" style="fill:#ebebeb"></path><path d="M374,399.37c.82-3.1,3.3-7.5,5.87-9.42a3.65,3.65,0,0,1,1.33-.71,1.51,1.51,0,0,1,1.42.31,2.14,2.14,0,0,1,.32,2.05,12.49,12.49,0,0,1-9.26,9.33" style="fill:#ebebeb"></path><path d="M373.46,412.6a18,18,0,0,1,5.92-7.44,2.84,2.84,0,0,1,2.06-.74c1.12.21,1.63,1.58,1.53,2.71-.2,2.34-2,4.22-3.83,5.67a23.6,23.6,0,0,1-5.47,2.81" style="fill:#ebebeb"></path><path d="M373.76,422.1a17.55,17.55,0,0,1,5-5.73,3.6,3.6,0,0,1,1.51-.67,1.53,1.53,0,0,1,1.48.56c.51.74,0,1.74-.51,2.46a14.41,14.41,0,0,1-7.18,5.27" style="fill:#ebebeb"></path><path d="M373.51,418.24a56,56,0,0,0-7.2-7.33c-.4-.34-.92-.71-1.43-.54a1.08,1.08,0,0,0-.66,1,2.84,2.84,0,0,0,.27,1.2,14,14,0,0,0,9.27,7.79" style="fill:#ebebeb"></path><path d="M373.74,405.87,368.09,399a6.76,6.76,0,0,0-1.84-1.74,2.32,2.32,0,0,0-2.41,0,2.3,2.3,0,0,0-.77,2.28,6,6,0,0,0,1.1,2.26,16.7,16.7,0,0,0,4.12,4.38c1.66,1.14,3.17,1.88,5.16,1.59" style="fill:#ebebeb"></path><path d="M374.53,392a19.69,19.69,0,0,0-5.69-8.54,3.31,3.31,0,0,0-1.48-.87,2.5,2.5,0,0,0-2.6,1.82,4.66,4.66,0,0,0,.52,3.74,9.63,9.63,0,0,0,2.66,2.81,22.63,22.63,0,0,0,6.28,3.4" style="fill:#ebebeb"></path><path d="M376.79,379.53c-.55-4-2.63-7.32-5-10.55-.51-.69-1.22-1.41-2.06-1.28a1.62,1.62,0,0,0-1.18,1,3.77,3.77,0,0,0-.22,1.6,12.33,12.33,0,0,0,8,11" style="fill:#ebebeb"></path><path d="M378.37,373.19a32.77,32.77,0,0,1-.21-6.18,11,11,0,0,1,2-5.75,4.75,4.75,0,0,1,2.05-1.64,2.63,2.63,0,0,1,2.52.33,2.73,2.73,0,0,1,.86,2.22,7.06,7.06,0,0,1-.63,2.37c-1.51,3.62-4,7.63-6.64,8.65" style="fill:#ebebeb"></path><path d="M353.74,378a3.28,3.28,0,0,1,0,.51c0,.37,0,.85,0,1.45s0,1.4,0,2.29,0,1.91.11,3c.1,2.25.32,4.92.66,7.87s.87,6.19,1.56,9.55,1.55,6.51,2.4,9.36,1.75,5.38,2.57,7.48c.38,1.05.78,2,1.11,2.82s.64,1.54.89,2.11.43,1,.57,1.34a2.74,2.74,0,0,1,.18.47s-.1-.14-.25-.44l-.63-1.31c-.27-.57-.6-1.26-.95-2.09s-.77-1.75-1.17-2.81c-.85-2.09-1.75-4.62-2.64-7.47s-1.73-6-2.44-9.39-1.19-6.61-1.54-9.58-.52-5.64-.58-7.9c-.06-1.12-.05-2.14-.06-3s0-1.66,0-2.29l.06-1.46A2.42,2.42,0,0,1,353.74,378Z" style="fill:#e0e0e0"></path><path d="M354.62,394.33a8.47,8.47,0,0,1,2-5.31,2.06,2.06,0,0,1,1.68-.89c.87.13,1.27,1.17,1.3,2.05a6.2,6.2,0,0,1-1.4,4.11,5.21,5.21,0,0,1-3.38,2.08" style="fill:#e0e0e0"></path><path d="M356.54,405a14.24,14.24,0,0,1,2-7.68,2.75,2.75,0,0,1,.75-.77,1.1,1.1,0,0,1,1-.1,1.59,1.59,0,0,1,.66,1.34,8.94,8.94,0,0,1-4.3,8.34" style="fill:#e0e0e0"></path><path d="M359,414.09a13,13,0,0,1,2.42-6.34,2,2,0,0,1,1.25-.94c.81-.11,1.45.72,1.63,1.51.36,1.64-.45,3.3-1.39,4.69a17.2,17.2,0,0,1-3.12,3.09" style="fill:#e0e0e0"></path><path d="M361.28,420.5a12.52,12.52,0,0,1,2.19-5,2.63,2.63,0,0,1,.88-.78,1.09,1.09,0,0,1,1.13.06c.51.4.39,1.18.18,1.79a10.28,10.28,0,0,1-3.75,5.13" style="fill:#e0e0e0"></path><path d="M360.28,417.92a39.8,39.8,0,0,0-6.48-3.44,1.15,1.15,0,0,0-1.09-.06.76.76,0,0,0-.24.8,1.94,1.94,0,0,0,.44.76,10,10,0,0,0,8,3.31" style="fill:#e0e0e0"></path><path d="M357.77,409.45,352.44,406a5.08,5.08,0,0,0-1.62-.79,1.66,1.66,0,0,0-1.65.5,1.64,1.64,0,0,0,0,1.72,4.26,4.26,0,0,0,1.24,1.3,12,12,0,0,0,3.75,2.1,4.9,4.9,0,0,0,3.85,0" style="fill:#e0e0e0"></path><path d="M355.31,399.8a14.06,14.06,0,0,0-5.71-4.59,2.32,2.32,0,0,0-1.2-.27,1.76,1.76,0,0,0-1.37,1.8,3.28,3.28,0,0,0,1.16,2.43,6.88,6.88,0,0,0,2.41,1.34,15.9,15.9,0,0,0,5,1" style="fill:#e0e0e0"></path><path d="M354.17,390.86a16.41,16.41,0,0,0-5.7-6.1,1.71,1.71,0,0,0-1.67-.43,1.17,1.17,0,0,0-.59.95,2.75,2.75,0,0,0,.19,1.13,8.8,8.8,0,0,0,7.83,5.78" style="fill:#e0e0e0"></path><path d="M353.89,386.2a22.86,22.86,0,0,1-1.47-4.16,7.88,7.88,0,0,1,.15-4.36,3.49,3.49,0,0,1,1.05-1.56,1.87,1.87,0,0,1,1.79-.31,2,2,0,0,1,1.06,1.32,5.15,5.15,0,0,1,.08,1.75c-.25,2.79-1.1,6.07-2.66,7.32" style="fill:#e0e0e0"></path><path d="M393.9,377.6a4,4,0,0,1,0,.51l.05,1.45c0,.63,0,1.4,0,2.29s0,1.92,0,3c-.07,2.25-.26,4.93-.58,7.9s-.85,6.2-1.54,9.57-1.57,6.54-2.44,9.4-1.8,5.37-2.65,7.46c-.4,1.06-.82,2-1.17,2.81s-.67,1.53-.95,2.09l-.63,1.31a2.44,2.44,0,0,1-.24.44,3.7,3.7,0,0,1,.17-.47c.15-.34.34-.78.57-1.34s.56-1.28.89-2.11.74-1.76,1.12-2.82c.81-2.1,1.69-4.63,2.56-7.47s1.69-6,2.4-9.37,1.2-6.59,1.57-9.54.55-5.63.65-7.87c.08-1.13.08-2.15.11-3s0-1.66,0-2.29,0-1.08,0-1.45A1.88,1.88,0,0,1,393.9,377.6Z" style="fill:#ebebeb"></path><path d="M393,394a8.44,8.44,0,0,0-2-5.31,2,2,0,0,0-1.67-.89c-.87.13-1.27,1.17-1.3,2.05a6.19,6.19,0,0,0,1.39,4.11,5.26,5.26,0,0,0,3.38,2.09" style="fill:#ebebeb"></path><path d="M391.09,404.62a14.25,14.25,0,0,0-2-7.68,2.79,2.79,0,0,0-.76-.77,1.09,1.09,0,0,0-1-.1,1.54,1.54,0,0,0-.66,1.34,8.9,8.9,0,0,0,4.3,8.34" style="fill:#ebebeb"></path><path d="M388.61,413.74a13,13,0,0,0-2.43-6.34,2,2,0,0,0-1.25-.94c-.8-.1-1.45.72-1.62,1.51-.37,1.64.45,3.3,1.39,4.69a16.87,16.87,0,0,0,3.12,3.09" style="fill:#ebebeb"></path><path d="M386.36,420.15a12.4,12.4,0,0,0-2.2-5,2.53,2.53,0,0,0-.88-.78,1.11,1.11,0,0,0-1.13.06c-.5.4-.39,1.18-.18,1.79a10.3,10.3,0,0,0,3.76,5.13" style="fill:#ebebeb"></path><path d="M387.36,417.57a40.49,40.49,0,0,1,6.47-3.44,1.17,1.17,0,0,1,1.1-.06.76.76,0,0,1,.24.8,2,2,0,0,1-.45.76,9.94,9.94,0,0,1-8,3.31" style="fill:#ebebeb"></path><path d="M389.86,409.1l5.34-3.47a4.61,4.61,0,0,1,1.62-.79,1.46,1.46,0,0,1,1.68,2.21,4.27,4.27,0,0,1-1.23,1.31,12.14,12.14,0,0,1-3.75,2.09,4.92,4.92,0,0,1-3.86,0" style="fill:#ebebeb"></path><path d="M392.33,399.45a14,14,0,0,1,5.71-4.59,2.29,2.29,0,0,1,1.19-.27,1.79,1.79,0,0,1,1.38,1.8,3.38,3.38,0,0,1-1.16,2.44,7.22,7.22,0,0,1-2.41,1.34,16.23,16.23,0,0,1-5,.95" style="fill:#ebebeb"></path><path d="M393.46,390.51c1.23-2.6,3.37-4.42,5.7-6.1a1.74,1.74,0,0,1,1.68-.43,1.16,1.16,0,0,1,.58.95,2.59,2.59,0,0,1-.19,1.13,8.82,8.82,0,0,1-7.83,5.79" style="fill:#ebebeb"></path><path d="M393.75,385.85a22.86,22.86,0,0,0,1.47-4.16,7.88,7.88,0,0,0-.16-4.36,3.39,3.39,0,0,0-1-1.55,1.86,1.86,0,0,0-1.79-.32,2,2,0,0,0-1.07,1.33,5.08,5.08,0,0,0-.07,1.74c.24,2.8,1.09,6.07,2.66,7.32" style="fill:#ebebeb"></path><path d="M347,425.88v6.73a2.65,2.65,0,0,0,2.65,2.64h46a2.65,2.65,0,0,0,2.65-2.64v-6.73Z" style="fill:#ebebeb"></path><polygon points="350.94 435.25 351.32 437.39 393.76 440.42 394.83 435.25 350.94 435.25" style="fill:#e0e0e0"></polygon><rect x="363.8" y="136.06" width="60.02" height="62.56" style="fill:#e0e0e0"></rect><rect x="359.73" y="136.06" width="60.02" height="62.56" style="fill:#fafafa"></rect><path d="M419.77,198.64h-60V136h60Zm-60,0h60V136.08h-60Z" style="fill:#e0e0e0"></path><rect x="367.8" y="144.47" width="43.88" height="45.74" style="fill:#fafafa"></rect><path d="M367.8,190.52a6.86,6.86,0,0,1-1.08,1.26c-.7.74-1.69,1.74-2.79,2.83s-2.12,2-2.87,2.74a7.63,7.63,0,0,1-1.26,1.06,6.51,6.51,0,0,1,1.07-1.26c.7-.74,1.69-1.74,2.8-2.83s2.12-2.06,2.87-2.75A7.05,7.05,0,0,1,367.8,190.52Z" style="fill:#e0e0e0"></path><path d="M411.69,190.41a7,7,0,0,1,1.25,1.08c.74.7,1.75,1.69,2.83,2.79s2.06,2.12,2.75,2.87a7.2,7.2,0,0,1,1.05,1.26,6.67,6.67,0,0,1-1.25-1.07c-.74-.7-1.74-1.69-2.83-2.8s-2.07-2.12-2.75-2.87A6.53,6.53,0,0,1,411.69,190.41Z" style="fill:#e0e0e0"></path><path d="M411.57,144.59a6.86,6.86,0,0,1,1.08-1.26c.7-.74,1.68-1.74,2.79-2.82s2.12-2.06,2.86-2.75a6.5,6.5,0,0,1,1.27-1A7.07,7.07,0,0,1,418.5,138c-.71.74-1.69,1.74-2.8,2.83s-2.12,2.06-2.87,2.75A7.05,7.05,0,0,1,411.57,144.59Z" style="fill:#e0e0e0"></path><path d="M367.68,144.71a7.84,7.84,0,0,1-1.26-1.09c-.74-.7-1.74-1.68-2.82-2.79s-2.06-2.12-2.75-2.86a6.5,6.5,0,0,1-1.05-1.27,6.92,6.92,0,0,1,1.25,1.08c.74.7,1.74,1.68,2.83,2.79s2.06,2.12,2.75,2.87A6.5,6.5,0,0,1,367.68,144.71Z" style="fill:#e0e0e0"></path><path d="M411.57,190.21a.72.72,0,0,1,0-.22c0-.15,0-.36,0-.64,0-.57,0-1.39,0-2.47,0-2.16,0-5.31,0-9.32,0-8-.05-19.42-.08-33.09l.17.17-43.76,0h0l.2-.2c0,16.79,0,32.5,0,45.74l-.17-.16,31.69.08,8.9.05,2.35,0h0l-2.32,0-8.86.05-31.8.08h-.16v-.17c0-13.24,0-29,0-45.74v-.19h.2l43.76,0h.17v.17c0,13.71-.06,25.16-.08,33.2,0,4,0,7.13,0,9.28,0,1.06,0,1.88,0,2.44,0,.27,0,.47,0,.62Z" style="fill:#e0e0e0"></path><rect x="382.42" y="160.02" width="14.64" height="14.64" style="fill:#ebebeb"></rect></g><g id="freepik--Browser--inject-5"><rect x="63.47" y="294.13" width="372.3" height="48.51" rx="22.54" style="fill:#fafafa"></rect><path d="M349.85,294.13h64.2a21.71,21.71,0,0,1,21.71,21.71v5.08a21.71,21.71,0,0,1-21.71,21.71h-64.2a0,0,0,0,1,0,0V294.13A0,0,0,0,1,349.85,294.13Z" style="fill:#FF725E"></path><path d="M104.58,319.42v6.41H102v-6.08c0-2-1-2.95-2.66-2.95-1.86,0-3.12,1.13-3.12,3.37v5.66H93.56V310.28h2.62v5.66a5,5,0,0,1,3.73-1.42C102.59,314.52,104.58,316.05,104.58,319.42Z" style="fill:#263238"></path><path d="M114.64,325.22a4.13,4.13,0,0,1-2.51.76c-2.45,0-3.86-1.3-3.86-3.78v-5.38h-1.84v-2.09h1.84v-2.56h2.62v2.56h3v2.09h-3v5.32c0,1.09.55,1.68,1.55,1.68a2.38,2.38,0,0,0,1.47-.46Z" style="fill:#263238"></path><path d="M123.25,325.22a4.11,4.11,0,0,1-2.51.76c-2.45,0-3.85-1.3-3.85-3.78v-5.38H115v-2.09h1.85v-2.56h2.61v2.56h3v2.09h-3v5.32c0,1.09.55,1.68,1.55,1.68a2.38,2.38,0,0,0,1.47-.46Z" style="fill:#263238"></path><path d="M137.29,320.24a5.45,5.45,0,0,1-5.67,5.74,4.63,4.63,0,0,1-3.59-1.51v5.42h-2.62V314.64h2.5v1.47a4.61,4.61,0,0,1,3.71-1.59A5.44,5.44,0,0,1,137.29,320.24Zm-2.66,0a3.32,3.32,0,1,0-3.31,3.49A3.25,3.25,0,0,0,134.63,320.24Z" style="fill:#263238"></path><path d="M138.91,316.25a1.72,1.72,0,1,1,3.43,0,1.72,1.72,0,1,1-3.43,0Zm0,8a1.72,1.72,0,1,1,3.43,0,1.72,1.72,0,1,1-3.43,0Z" style="fill:#263238"></path><path d="M150.52,308.19h2.34L146,327.92H143.6Z" style="fill:#263238"></path><path d="M156.82,308.19h2.35l-6.91,19.73h-2.35Z" style="fill:#263238"></path><path d="M176.85,314.64l-4.12,11.19h-2.52l-2.89-7.71-2.93,7.71h-2.52l-4.1-11.19h2.47l2.95,8.26,3.08-8.26h2.2l3,8.3,3-8.3Z" style="fill:#263238"></path><path d="M195.9,314.64l-4.13,11.19h-2.51l-2.89-7.71-2.94,7.71h-2.51l-4.11-11.19h2.48l3,8.26,3.08-8.26h2.2l3,8.3,3-8.3Z" style="fill:#263238"></path><path d="M215,314.64l-4.13,11.19h-2.51l-2.89-7.71-2.94,7.71H200l-4.11-11.19h2.47l3,8.26,3.08-8.26h2.2l3,8.3,3-8.3Z" style="fill:#263238"></path><path d="M215.18,324.24a1.72,1.72,0,1,1,3.44,0,1.72,1.72,0,1,1-3.44,0Z" style="fill:#263238"></path><path d="M413.22,342.63l2.07-.12c.68-.07,1.52-.22,2.52-.38a24.69,24.69,0,0,0,3.37-1,22.43,22.43,0,0,0,8.17-5.38,24,24,0,0,0,3.7-5.07,22.66,22.66,0,0,0,2.28-6.75,39.51,39.51,0,0,0,.3-8,21.89,21.89,0,0,0-2-8.53,22.73,22.73,0,0,0-5.72-7.64,22,22,0,0,0-9.12-4.77,23,23,0,0,0-5.41-.71h-17.6l-25.91,0L86,294.34a22.42,22.42,0,0,0-21.9,17.87c-.11.84-.28,1.66-.35,2.5s-.11,1.67-.1,2.52v2.54c0,.84.08,1.67.11,2.51a22.29,22.29,0,0,0,19.1,19.9,18,18,0,0,0,2.43.21c.81.06,1.64,0,2.46,0h80.27l127.6.05,86,.07,23.39,0,6.08,0,2.07,0s-.7,0-2.07,0l-6.08,0-23.39,0-86,.07-127.6,0H87.78c-.83,0-1.64,0-2.47,0a18.57,18.57,0,0,1-2.48-.21,22.71,22.71,0,0,1-19.46-20.28c0-.85-.11-1.71-.12-2.55v-2.54c0-.84.07-1.71.11-2.56s.23-1.69.35-2.54A22.85,22.85,0,0,1,86,293.91l283.84.06,25.91,0h17.6a23,23,0,0,1,5.47.73,22.1,22.1,0,0,1,9.2,4.83,23,23,0,0,1,5.77,7.72,22.35,22.35,0,0,1,2,8.61,40.68,40.68,0,0,1-.32,8,23.24,23.24,0,0,1-2.32,6.79,24,24,0,0,1-3.74,5.09,22.46,22.46,0,0,1-8.23,5.37,24.56,24.56,0,0,1-3.39,1c-1,.15-1.84.31-2.53.36Z" style="fill:#263238"></path><path d="M386.34,325a10.51,10.51,0,1,1,10.51-10.5A10.51,10.51,0,0,1,386.34,325Zm0-20.18A9.68,9.68,0,1,0,396,314.5,9.69,9.69,0,0,0,386.34,304.82Z" style="fill:#fff"></path><path d="M402.84,332.89a.43.43,0,0,1-.3-.13L393,322.45a.42.42,0,0,1,.61-.57l9.59,10.31a.43.43,0,0,1,0,.59A.46.46,0,0,1,402.84,332.89Z" style="fill:#fff"></path><path d="M222.41,329.47c-.12,0-.22-4.94-.22-11s.1-11,.22-11,.21,4.94.21,11S222.53,329.47,222.41,329.47Z" style="fill:#FF725E"></path></g><g id="freepik--Character--inject-5"><path d="M248.19,126.91a157.65,157.65,0,0,0,.05,39c.41,3.28,1.11,6.86,3.69,8.91,3.08,2.44,7.91,1.59,10.71-1.16s3.84-6.88,3.79-10.81-1.06-7.76-1.77-11.62c-.94-5.09-1.41-10.37-3.69-15s-7-8.6-12.12-8.08" style="fill:#263238"></path><path d="M255.77,88.82c5.87-5.78,18.46-4.31,25,.66s10,13.16,11.38,21.29,1.06,16.45,1.73,24.66,2.52,16.68,7.59,23.18c2.17,2.77,4.88,5.12,6.81,8.06a18.51,18.51,0,0,1,.76,19,16.72,16.72,0,0,1-17,8c-6.82-1.29-12.06-7.1-14.67-13.53s-3-13.51-3.57-20.43a563.47,563.47,0,0,0-8.68-64.18" style="fill:#263238"></path><path d="M248.59,152.34l6.11-1.66h26.93l14.6,8.62s-25.53,11.49-35,6.88a26.57,26.57,0,0,1-12.65-13.07" style="fill:#c69481"></path><path d="M281.84,103.59,282,100l-21.5-4.78c-6.65-.92-14.07,5.55-14.7,12.23-.7,7.42-1.26,16.51-.55,22.08,1.42,11.22,9.93,12.9,9.93,12.9l.91,24.51L280.77,168Z" style="fill:#c69481"></path><path d="M249,115.28a1.43,1.43,0,0,0,1.33,1.49,1.38,1.38,0,0,0,1.52-1.25,1.43,1.43,0,0,0-1.33-1.48A1.37,1.37,0,0,0,249,115.28Z" style="fill:#263238"></path><path d="M248,111.41c.17.19,1.28-.58,2.82-.52s2.65.85,2.82.67-.09-.42-.57-.8a4,4,0,0,0-2.24-.77,3.89,3.89,0,0,0-2.26.65C248.12,111,248,111.32,248,111.41Z" style="fill:#263238"></path><path d="M264.06,116a1.43,1.43,0,0,0,1.33,1.49,1.38,1.38,0,0,0,1.52-1.25,1.43,1.43,0,0,0-1.34-1.48A1.36,1.36,0,0,0,264.06,116Z" style="fill:#263238"></path><path d="M263.16,112.21c.17.19,1.28-.58,2.82-.53s2.64.86,2.82.68-.09-.43-.57-.8a4,4,0,0,0-2.25-.77,3.79,3.79,0,0,0-2.25.65C263.25,111.79,263.08,112.12,263.16,112.21Z" style="fill:#263238"></path><path d="M257.22,124.25a10.34,10.34,0,0,0-2.49-.53c-.39,0-.76-.14-.82-.41a2,2,0,0,1,.3-1.16c.4-.94.82-1.92,1.25-3,1.75-4.21,3-7.68,2.86-7.75s-1.73,3.29-3.47,7.51l-1.21,3a2.33,2.33,0,0,0-.25,1.54,1,1,0,0,0,.63.6,3,3,0,0,0,.66.11A10,10,0,0,0,257.22,124.25Z" style="fill:#263238"></path><path d="M255.21,142.45a29.5,29.5,0,0,0,15.44-3.53s-3.78,7.72-15.3,6.34Z" style="fill:#936457"></path><path d="M257.75,128a2.8,2.8,0,0,1,2.52-1,2.54,2.54,0,0,1,1.72,1,1.62,1.62,0,0,1,.07,1.84,1.88,1.88,0,0,1-2,.45,5.85,5.85,0,0,1-1.93-1.24,1.56,1.56,0,0,1-.42-.47.49.49,0,0,1,0-.57" style="fill:#936457"></path><path d="M261.72,125.46c-.25,0-.31,1.65-1.78,2.79s-3.24.9-3.26,1.13.39.34,1.14.38a4.14,4.14,0,0,0,2.72-.85,3.66,3.66,0,0,0,1.38-2.34C262,125.87,261.83,125.45,261.72,125.46Z" style="fill:#263238"></path><path d="M263,107.56c.14.42,1.68.27,3.48.54s3.25.82,3.5.45c.11-.18-.13-.58-.71-1a5.71,5.71,0,0,0-2.57-1,5.83,5.83,0,0,0-2.74.23C263.23,107,262.89,107.36,263,107.56Z" style="fill:#263238"></path><path d="M248.24,106.13c.26.36,1.34,0,2.61.05s2.35.31,2.61-.05c.11-.18,0-.53-.51-.88a3.77,3.77,0,0,0-4.2,0C248.29,105.6,248.13,106,248.24,106.13Z" style="fill:#263238"></path><path d="M281.51,121.14c1.95-1.29,2.8-12.42,2.72-17s-2.53-8.64-5.75-11.88C275,88.76,270.92,87.53,266,87c-2.76-.3-5.72-.66-8.39.1s-4.16,1.7-5.46,4.15c-.72,1.36-.91,3.3.34,4.19s2.82.17,4.23-.23c3.74-1.07,7.84.14,11.07,2.3s5.77,5.21,8.26,8.21c3.23,3.91,4.76,10.41,5.48,15.42" style="fill:#FF725E"></path><path d="M243.85,95.12c1.43-4.54,10.27-10.16,19.63-6,4.3.15,8.48.86,13.06,5,8.27,7.55,5.1,26,5.1,26a41.91,41.91,0,0,1-13.19-10.65c-5.31-6.4-8.22-11.41-9.26-14.45h0c-8.64,2.08-11.9,9.63-13.42,12.9C243.82,105.78,241.32,103.13,243.85,95.12Z" style="fill:#263238"></path><path d="M279.81,119.06c.18-.09,7.36-2.51,7.43,4.92s-7.4,6-7.41,5.75S279.81,119.06,279.81,119.06Z" style="fill:#c69481"></path><path d="M282.07,126.89s.13.09.35.19a1.27,1.27,0,0,0,1,0,3.2,3.2,0,0,0,1.45-2.89,4.35,4.35,0,0,0-.38-1.84,1.5,1.5,0,0,0-1-1,.65.65,0,0,0-.76.36c-.1.21-.05.36-.09.37s-.16-.12-.1-.43a.84.84,0,0,1,.28-.47,1,1,0,0,1,.72-.19,1.8,1.8,0,0,1,1.36,1.14,4.41,4.41,0,0,1,.47,2.06c0,1.5-.79,2.91-1.86,3.23a1.35,1.35,0,0,1-1.18-.19C282.08,127.07,282,126.91,282.07,126.89Z" style="fill:#936457"></path><path d="M199.85,284.82l-15,1.66-9.13,5.73s-.18,1.86,2.42,1.56l5.15-2.17-4.08,4.46s1,1.79,3.23.54a12.66,12.66,0,0,0,3.62-3.14l9-.63s-6.8,6.54-5.55,8.24,2.06,1.34,3,.72,1.53-2.78,3.76-3.49,5.94-2.81,9.94-4.71c3.45-1.63,6.94-13.3,6.94-13.3l-11.49-2.24Z" style="fill:#c69481"></path><path d="M193.89,288.64c0,.19-3.78.92-8.51,1.63l-.12,0,.19-.1c-3.3,3.38-6.07,6-6.21,5.87s2.42-3,5.72-6.35l.08-.09h.11l.13,0C190,288.88,193.86,288.45,193.89,288.64Z" style="fill:#936457"></path><polygon points="289.66 379.01 286.87 354.83 264.45 361.11 270.11 384.3 289.66 379.01" style="fill:#c69481"></polygon><path d="M289.91,379l3.79,28.18,9.43,21.43a2.91,2.91,0,0,1-1.68,3.91h0a2.91,2.91,0,0,1-2.65-.34c-4.93-3.44-23-16.16-23.19-18.24-.19-2.41-6-29.46-6-29.46Z" style="fill:#FF725E"></path><g style="opacity:0.6000000000000001"><path d="M301.45,432.47,275.31,412l.19,1.19a4.36,4.36,0,0,0,1.47,2.64c2.12,1.82,8.06,6.7,21.75,16.31a2.89,2.89,0,0,0,2.73.33Z" style="fill:#fff"></path></g><g style="opacity:0.6000000000000001"><path d="M279.65,402a1.76,1.76,0,0,1,.83,2.2,1.69,1.69,0,0,1-2.17.85,1.85,1.85,0,0,1-.87-2.33,1.75,1.75,0,0,1,2.35-.63" style="fill:#fff"></path></g><path d="M293.09,421.21a8.71,8.71,0,0,1,2.12-2.57c1.51-1.1,3.13-.95,3.14-1.13s-.38-.24-1.05-.22a4.42,4.42,0,0,0-2.45.84,4.51,4.51,0,0,0-1.62,2C293,420.78,293,421.2,293.09,421.21Z" style="fill:#263238"></path><path d="M295.69,424.66c.15.1.91-1,2.29-1.6a23.11,23.11,0,0,1,2.69-.79c.06-.16-1.39-.54-3,.22S295.53,424.61,295.69,424.66Z" style="fill:#263238"></path><path d="M288.61,417c.15.11,1.31-1.52,3.37-2.71s4-1.44,4-1.63-2.13-.22-4.33,1.09S288.46,416.92,288.61,417Z" style="fill:#263238"></path><path d="M286.74,408.51c.1.15,1.55-.74,3.56-1.13s3.68-.16,3.71-.34-1.68-.72-3.84-.27S286.63,408.39,286.74,408.51Z" style="fill:#263238"></path><path d="M285.41,400.26c.12.15,1.53-1,3.68-1.27s3.8.52,3.87.35-.33-.37-1-.65a6.3,6.3,0,0,0-2.92-.32,6.19,6.19,0,0,0-2.75,1C285.64,399.82,285.36,400.21,285.41,400.26Z" style="fill:#263238"></path><path d="M288.79,397.43a2.37,2.37,0,0,0-.13-1.07,7.45,7.45,0,0,0-1.28-2.65,3.33,3.33,0,0,0-1.65-1.34,1.18,1.18,0,0,0-1.27.46,1.93,1.93,0,0,0-.24,1.34,4.11,4.11,0,0,0,4.16,3.2,4.76,4.76,0,0,0,4.24-3.2,1.63,1.63,0,0,0-.13-1.37,1.16,1.16,0,0,0-1.29-.42,4,4,0,0,0-1.69,1.26,8.33,8.33,0,0,0-1.58,2.48,2.5,2.5,0,0,0-.27,1,13.28,13.28,0,0,1,2.17-3.22,3.75,3.75,0,0,1,1.5-1.05.6.6,0,0,1,.7.22,1.1,1.1,0,0,1,0,.9,4.27,4.27,0,0,1-3.71,2.74,3.57,3.57,0,0,1-3.57-2.67,1.38,1.38,0,0,1,.13-.94.64.64,0,0,1,.69-.27A3.08,3.08,0,0,1,287,394,11,11,0,0,1,288.79,397.43Z" style="fill:#263238"></path><path d="M237.8,240.52l-.41,6.1s-5.15,9.75-5.62,18.49c-.28,5.07-.39,12.55-.44,17.93a22.67,22.67,0,0,0,3.46,12.25l10.32,16.55-1.42,18.69L262.4,368l27.69-7-3.28-69.15-11.14-36.52L273.55,238Z" style="fill:#263238"></path><path d="M293.58,236.72l.49,7.95s22.24-47.36,52.58-53.2c19.71-3.8,27.48,17.69,20.56,34.75-4.16,10.27-21.44,29.93-21.46,30.38-.55,10.55-11.29,9-11.29,9S321,286.85,317,291c-2.74,2.85-31.65,1.83-31.65,1.83l-9.09-18.79-3.66-36Z" style="fill:#263238"></path><path d="M255.13,286.37a8.83,8.83,0,0,1-.52,1.71c-.41,1.2-.93,2.74-1.57,4.58-1.31,3.87-3,9.25-4.68,15.27s-2.88,11.53-3.71,15.53c-.39,1.91-.71,3.51-1,4.75a8.05,8.05,0,0,1-.42,1.73,9.66,9.66,0,0,1,.18-1.78c.14-1.13.4-2.77.76-4.79.72-4,1.9-9.57,3.54-15.61s3.44-11.41,4.87-15.25c.71-1.92,1.32-3.47,1.77-4.52A9.49,9.49,0,0,1,255.13,286.37Z" style="fill:#455a64"></path><path d="M248.23,278.91a38.46,38.46,0,0,1-.44,4.5c-.32,2.78-.69,6.61-.9,10.86s-.21,8.11-.16,10.9a38.26,38.26,0,0,1,0,4.52,4.71,4.71,0,0,1-.2-1.2c-.09-.78-.18-1.91-.26-3.31a106,106,0,0,1,0-10.94,107.75,107.75,0,0,1,1.08-10.89c.22-1.38.42-2.5.59-3.26A4.66,4.66,0,0,1,248.23,278.91Z" style="fill:#455a64"></path><path d="M290.09,359.53a2.48,2.48,0,0,1,0-.34c0-.26,0-.58-.08-1,0-.91-.14-2.18-.24-3.8-.19-3.35-.45-8.11-.78-14-.6-11.85-1.43-28.15-2.33-46.15-.29-4.5-.19-8.94-1.14-13A36.61,36.61,0,0,0,280.9,270a34.65,34.65,0,0,0-15.24-13.43,36.86,36.86,0,0,0-13.45-3.3c-1.64-.07-2.92,0-3.79,0l-1,.05h-.34a26.67,26.67,0,0,1,5.13-.3,35.86,35.86,0,0,1,13.63,3.13,35.38,35.38,0,0,1,8.25,5.12,35.91,35.91,0,0,1,7.31,8.42,36.93,36.93,0,0,1,4.68,11.39c1,4.21.87,8.67,1.16,13.15.84,18,1.6,34.3,2.15,46.16.24,5.87.43,10.64.57,14,0,1.62.1,2.89.13,3.81,0,.4,0,.73,0,1S290.11,359.53,290.09,359.53Z" style="fill:#455a64"></path><path d="M277.42,261.13c-.13-.12,2.52-3.55,5.92-7.67s6.28-7.37,6.42-7.26-2.51,3.55-5.92,7.67S277.56,261.24,277.42,261.13Z" style="fill:#455a64"></path><path d="M321.72,233.07a123.24,123.24,0,0,1,8.62-12.31,31,31,0,0,1,4.12-4.61,56,56,0,0,1-3.59,5.07c-2.25,3.09-5.29,7.42-8.35,12.41s-5.94,9.56-6.47,13.38a12.75,12.75,0,0,0,.58,6.12,3.39,3.39,0,0,1-.81-1.51,10.63,10.63,0,0,1-.43-4.71,19.48,19.48,0,0,1,2.2-6.6" style="fill:#455a64"></path><path d="M337.16,210c.14.13-.94,1.48-1.61,3.45s-.69,3.69-.89,3.7-.47-1.81.28-3.91S337.05,209.9,337.16,210Z" style="fill:#455a64"></path><path d="M274.49,310.24c-.16-.08,1.23-3.33,3.11-7.26s3.54-7.05,3.7-7-1.23,3.32-3.11,7.25S274.65,310.31,274.49,310.24Z" style="fill:#455a64"></path><path d="M258.82,299.49c.17-.06.88,1.45,1.59,3.38s1.14,3.54,1,3.6-.88-1.45-1.58-3.38S258.65,299.56,258.82,299.49Z" style="fill:#455a64"></path><path d="M222.85,173.14c1.6-13.84,10.48-16.94,10.48-16.94l1.3,81.77-10.2,42.23a9.46,9.46,0,0,1-12,6.83l-20.66-6.28S221.26,187,222.85,173.14Z" style="fill:#FF725E"></path><path d="M309.07,166s5.11,11.63,5.11,17.75,6.12,45.77,0,54.17S296,246,292.61,245.75c-4.67-.39-26.45-40.67-25.56-41.19l12.25-2.66s8.58.53,12.67,4,8.09-.53,8.09-.53l8.65-37.17" style="fill:#FF725E"></path><path d="M292,156.2S306,161,309.07,166s-14.59,70.42-14.59,70.42l-56.68,4.06s-4.47-.81-5.69-4.87,1.22-79.45,1.22-79.45l15.77-5.58s6.78,7,11.66,8.43S292,156.2,292,156.2Z" style="fill:#FF725E"></path><path d="M236.88,174.15a2.94,2.94,0,0,1,.06.67c0,.52,0,1.16.06,1.93,0,1.68,0,4.11,0,7.11a233.32,233.32,0,0,1-1.74,23.37c-.57,4.54-1.25,8.86-1.95,12.76s-1.46,7.39-1.38,10.37a14.45,14.45,0,0,0,1.62,6.75,19.53,19.53,0,0,0,1.46,2.13s-.2-.13-.51-.45a9.25,9.25,0,0,1-1.17-1.56,14.17,14.17,0,0,1-1.86-6.86c-.14-3,.57-6.6,1.25-10.48s1.33-8.21,1.89-12.74c1.14-9.06,1.69-17.32,1.94-23.31.1-2.92.18-5.32.24-7.09,0-.77,0-1.41.06-1.93A2.09,2.09,0,0,1,236.88,174.15Z" style="fill:#263238"></path><path d="M292,209.16a25,25,0,0,0-2-2.38,10.07,10.07,0,0,0-2.69-1.86,13,13,0,0,0-3.89-1,15.86,15.86,0,0,0-7.29.42,6.25,6.25,0,0,0-1.91,1.08c-.37.38-.59.58-.63.56s.12-.29.45-.73a5.47,5.47,0,0,1,1.92-1.34,14.72,14.72,0,0,1,7.55-.63,12.86,12.86,0,0,1,4.06,1.13,9.58,9.58,0,0,1,2.76,2.08,8.22,8.22,0,0,1,1.33,1.9C291.93,208.85,292,209.14,292,209.16Z" style="fill:#263238"></path><path d="M277.24,221.65c.1,0,.55,1.53,1.59,3.93a73.75,73.75,0,0,0,4.79,9,71.8,71.8,0,0,0,5.93,8.31,19.3,19.3,0,0,0,2.14,2.21,6.17,6.17,0,0,0,.92.63s-.46,0-1.08-.43a14.76,14.76,0,0,1-2.32-2.11,60.9,60.9,0,0,1-10.8-17.46,30.49,30.49,0,0,1-1-3A4.09,4.09,0,0,1,277.24,221.65Z" style="fill:#263238"></path><path d="M298.84,172.53c-.14-.09,1.15-2.13,3.28-4.2s4.19-3.32,4.28-3.18-1.76,1.61-3.83,3.64S299,172.65,298.84,172.53Z" style="fill:#263238"></path><path d="M231.38,158.33c.09-.14,2.38,1.27,4.44,3.82s3,5.06,2.84,5.12-1.33-2.26-3.35-4.71S231.27,158.48,231.38,158.33Z" style="fill:#263238"></path><path d="M283.91,230.22a15.9,15.9,0,0,1-2-3.21,46.07,46.07,0,0,1-5-17.38,15.09,15.09,0,0,1,0-3.77,35.41,35.41,0,0,1,.48,3.72,59.43,59.43,0,0,0,1.79,8.81,60.45,60.45,0,0,0,3.14,8.42A33.25,33.25,0,0,1,283.91,230.22Z" style="fill:#263238"></path><path d="M305,213.25a20.36,20.36,0,0,1-2.1-2,49.94,49.94,0,0,0-5.32-4.57,18.3,18.3,0,0,0-3.22-2,4.19,4.19,0,0,0-2.91-.31,3.21,3.21,0,0,0-1.64,1.12c-.27.4-.33.68-.38.67s-.06-.31.17-.79a3,3,0,0,1,1.7-1.43,4.48,4.48,0,0,1,3.29.19,16.77,16.77,0,0,1,3.37,2.06,34.6,34.6,0,0,1,5.27,4.78A9.74,9.74,0,0,1,305,213.25Z" style="fill:#263238"></path><g style="opacity:0.30000000000000004"><path d="M278.55,226.21c-2.93.74-5.9-1-8.92-1.12-2.74-.14-5.36,1-8,1.71a27.55,27.55,0,0,1-17.43-1.05,4.71,4.71,0,0,1-1.76-1.09,2.22,2.22,0,0,1-.33-2.2c5.09-.05,10.17.17,15.27.12a5.83,5.83,0,0,0,3-.59,1.29,1.29,0,0,0,.54-.56s3.05-.1,4.14-.11c2.45,0,5.28.19,7.73.18,1.07,0,4.51.15,4.43.15"></path></g><g style="opacity:0.30000000000000004"><path d="M295.33,204.39A23.65,23.65,0,0,1,307,210.13a3.84,3.84,0,0,1,.93,1.12,1.4,1.4,0,0,1,0,1.39,1.45,1.45,0,0,1-1.61.46,4.29,4.29,0,0,1-1.51-.95L295.09,204"></path></g><path d="M298.05,176.35a23.17,23.17,0,0,1,.09,4.15c-.05,2.55-.23,6.09-.6,10s-.86,7.4-1.29,9.92a22,22,0,0,1-.86,4.05,30.47,30.47,0,0,1,.41-4.12c.31-2.53.73-6,1.1-9.91s.61-7.39.78-9.93A30.58,30.58,0,0,1,298.05,176.35Z" style="fill:#263238"></path><polygon points="253.89 204.37 247.96 191.59 227.57 190.31 226.85 191.5 242.31 221.28 260.94 221.43 253.89 204.37" style="fill:#455a64"></polygon><path d="M253.17,205.56l-5.93-12.79-20.39-1.28,14.74,31,16.53.12a3.93,3.93,0,0,0,2.67-1l.15-.14Z" style="fill:#455a64"></path><path d="M237.7,197.51a1,1,0,1,0-.06-1.45A1,1,0,0,0,237.7,197.51Z" style="fill:#ebebeb"></path><path d="M277.06,206.21l-7.88.46a11.17,11.17,0,0,0-8.45-4.71l-2.81-.18-2.06,2s-13.83-.26-14.44,1.41l0,.55,0,.32,11.75,1.53s-10-.66-10.64-.68-2.79-.34-2.82.84c0,1,1.08,1.81,2.8,2.17.7.15,9.35,1.45,9.35,1.45l-9.57-.69c-1.07-.08-1,1.65-.42,1.91s12.53,4.54,12.53,4.54a7.4,7.4,0,0,1-3.82,1c-1.68-.22-4.43-2.57-5.09-1.58s-.58,1.59-.24,1.85a44.44,44.44,0,0,0,5.48,3c1.3.44,14.66-.23,14.66-.23l13.95.48Z" style="fill:#c69481"></path><path d="M251.15,203.69a41.11,41.11,0,0,1,4.85.13,39,39,0,0,1,4.84.43,38.67,38.67,0,0,1-4.85-.13A36.85,36.85,0,0,1,251.15,203.69Z" style="fill:#936457"></path><path d="M252,203.13s-.14-.27-.37-.76-.59-1.28-1-2.13c-.86-1.92-2-4.46-3.32-7.38l.08,0-4.67-.3-11.27-.75-3.41-.25-.93-.08-.32,0h.32l.93,0,3.42.19,11.27.69,4.67.31h.06l0,.05,3.26,7.41.93,2.15C251.94,202.85,252,203.13,252,203.13Z" style="fill:#263238"></path><path d="M330.81,271.42,317.23,288.5s13.72,18.24,11.52,21.64l-35-23.85,20.07-27.48Z" style="fill:#FF725E"></path><g style="opacity:0.6000000000000001"><path d="M307.78,279.25a1.72,1.72,0,0,0-2.13.87,1.67,1.67,0,0,0,.85,2.13,1.83,1.83,0,0,0,2.26-.95,1.73,1.73,0,0,0-1.13-2.11" style="fill:#fff"></path></g><g style="opacity:0.6000000000000001"><path d="M293.76,286.29l2-2.77,33,24.21a2.92,2.92,0,0,1,0,2.79Z" style="fill:#fff"></path></g><path d="M317.91,288.73c-.13.16-1-.38-2.23-.45s-2.17.31-2.27.13.85-1,2.32-.84S318.06,288.6,317.91,288.73Z" style="fill:#263238"></path><path d="M320.39,292.84c-.08.19-1-.06-2.09.23s-1.8.91-2,.78.43-1.15,1.78-1.48S320.5,292.68,320.39,292.84Z" style="fill:#263238"></path><path d="M319.26,298.62c-.17-.08.21-1.08,1.31-1.68s2.14-.38,2.11-.19-.87.32-1.77.83S319.44,298.72,319.26,298.62Z" style="fill:#263238"></path><path d="M320.57,284.49c-.18.1-.77-.69-1.76-1.32s-1.94-.87-1.92-1.08,1.16-.28,2.31.48S320.75,284.42,320.57,284.49Z" style="fill:#263238"></path><path d="M323.25,281c-.05.07-.79-.31-1.7-1.27a9.16,9.16,0,0,1-1.38-1.87,9.52,9.52,0,0,1-.6-1.24,2.8,2.8,0,0,1-.22-.78.91.91,0,0,1,.58-.94,1.13,1.13,0,0,1,1,.16,2.34,2.34,0,0,1,.57.56,7.31,7.31,0,0,1,.79,1.14,7.4,7.4,0,0,1,.82,2.2,3.52,3.52,0,0,1,0,2.12c-.12,0-.12-.8-.48-2a8.22,8.22,0,0,0-.89-2,7.68,7.68,0,0,0-.75-1c-.29-.36-.6-.59-.81-.49s-.1.05-.1.22a2,2,0,0,0,.16.57,9.77,9.77,0,0,0,.52,1.18,12.94,12.94,0,0,0,1.18,1.85C322.71,280.39,323.32,280.91,323.25,281Z" style="fill:#263238"></path><path d="M322.85,281.08a3.5,3.5,0,0,1,.77-2,6.85,6.85,0,0,1,1.61-1.7,7,7,0,0,1,1.2-.71,1.75,1.75,0,0,1,1.72-.06,1,1,0,0,1,.37,1,3.09,3.09,0,0,1-.29.75,4.58,4.58,0,0,1-.85,1.15,4.86,4.86,0,0,1-2,1.23,2.72,2.72,0,0,1-2.13,0,19,19,0,0,0,2-.49,4.77,4.77,0,0,0,1.72-1.21,4.26,4.26,0,0,0,.7-1c.21-.41.29-.8.13-.86a1.19,1.19,0,0,0-1,.12,6.12,6.12,0,0,0-1.1.61A7.61,7.61,0,0,0,324,279.4C323.24,280.36,323,281.12,322.85,281.08Z" style="fill:#263238"></path><polygon points="334.46 265.59 330.18 270.95 314.22 259.11 317.13 254.66 334.46 265.59" style="fill:#c69481"></polygon></g><g id="freepik--speech-bubble--inject-5"><path d="M219.85,135.07l-13.1-5.17a32.86,32.86,0,1,1,7.56-9h0Z" style="fill:#fafafa"></path><path d="M219.85,135.07c-.34-.92-2-5.28-5.39-14.24l-.08-.2-.15.15,0,0,.22.16a32.55,32.55,0,0,0,4.39-16.52,29,29,0,0,0-.46-5.18c-.17-.88-.32-1.78-.52-2.68s-.53-1.78-.81-2.69a33.14,33.14,0,0,0-15.9-18.49,32.65,32.65,0,0,0-13.34-3.72,33.54,33.54,0,0,0-14.42,2.42A32.35,32.35,0,0,0,161,83a33,33,0,0,0-7.19,13.79,33.5,33.5,0,0,0-.18,14.9,32.4,32.4,0,0,0,5.85,12.83,33.32,33.32,0,0,0,21.17,12.75,35.59,35.59,0,0,0,10.78-.09A32.59,32.59,0,0,0,206.84,130l-.14,0,13.15,5-13-5.3-.07,0-.06.05a32.63,32.63,0,0,1-15.33,7,35.38,35.38,0,0,1-10.64,0,33,33,0,0,1-20.83-12.63,31.82,31.82,0,0,1-5.73-12.63,33,33,0,0,1,.19-14.65,32.46,32.46,0,0,1,7.07-13.57,31.84,31.84,0,0,1,12.18-8.71,33,33,0,0,1,14.18-2.4,32.33,32.33,0,0,1,13.13,3.65A32.75,32.75,0,0,1,216.62,94l.8,2.65c.21.88.35,1.77.53,2.64a29.23,29.23,0,0,1,.48,5.12,32.52,32.52,0,0,1-4.24,16.37l-.53.94.75-.77h0l-.23,0Z" style="fill:#263238"></path><path d="M181.15,100.71H183L187,95l0-3.7s2.86-.2,2.56,4.65.06,3.62.06,3.62,6.09,0,6.6.5.58,6.43.67,9.71a3.54,3.54,0,0,1-2.49,3.6,2.48,2.48,0,0,1-.65.09c-1.52,0-9.29-1.16-9.29-1.16l-3.21,0Z" style="fill:#FF725E"></path><polygon points="175.83 99.74 177.07 112.42 180.25 112.39 180.15 99.96 175.83 99.74" style="fill:#FF725E"></polygon></g><g id="freepik--Floor--inject-5"><path d="M469.26,468.87c0,.14-97.05.26-216.74.26S35.75,469,35.75,468.87s97-.26,216.77-.26S469.26,468.73,469.26,468.87Z" style="fill:#263238"></path></g><g id="freepik--Plant--inject-5"><path d="M116.29,392.49a21.57,21.57,0,0,1,13.34-1.62c2.43.4,5,1.13,6.6,2.95s2,5,.07,6.58a6.31,6.31,0,0,1-4.16,1.05c-3.53,0-7.44-.66-10.26,1.46-1.61,1.21-2.68,3.23-4.61,3.82a4.53,4.53,0,0,1-5-2.22,7.8,7.8,0,0,1-.56-5.74A8.75,8.75,0,0,1,116.29,392.49Z" style="fill:#FF725E"></path><path d="M107,374.54c2.48,3.54,7.3,2.37,9.54.21s3.18-5.3,4-8.3c2-6.83,4-14,2.49-21a11.64,11.64,0,0,0-2.68-5.7,6.09,6.09,0,0,0-5.76-1.92c-2.44.65-4,3-5,5.29a50.11,50.11,0,0,0-4.94,21.45c0,3.45.4,7.08,2.35,9.93" style="fill:#FF725E"></path><path d="M100.17,379.63c2.69-3.2,3.21-7.87,2-11.88a22.92,22.92,0,0,0-7-10.2,37.91,37.91,0,0,0-12.59-7.43,13.47,13.47,0,0,0-5.66-1A6,6,0,0,0,72.14,352c-1.33,2.52-.06,5.59,1.32,8.09a96.27,96.27,0,0,0,8.27,12.6c2.48,3.19,5.32,6.34,9.09,7.79s7.71,1.27,9.71-1.35" style="fill:#FF725E"></path><path d="M106.82,428a8.17,8.17,0,0,0,.22-1.61c.12-1.17.26-2.64.43-4.39s.48-4.06,1-6.45A49.33,49.33,0,0,1,110.8,408a28.19,28.19,0,0,1,3.89-6.88A14.55,14.55,0,0,1,119.6,397a14,14,0,0,1,4.14-1.29,7.14,7.14,0,0,0,1.61-.23,7.42,7.42,0,0,0-1.64,0,12.48,12.48,0,0,0-4.31,1.12,14.4,14.4,0,0,0-5.18,4.12,27.17,27.17,0,0,0-4,7,46.28,46.28,0,0,0-2.33,7.73A55.1,55.1,0,0,0,107,422c-.14,1.87-.19,3.38-.22,4.43A7.07,7.07,0,0,0,106.82,428Z" style="fill:#263238"></path><path d="M107.12,424.64a3.13,3.13,0,0,0,0-.75v-2.14c0-1.85,0-4.54.09-7.85.17-6.63.74-13.77,1.84-23.83,1-9.46,2.45-20.47,3.93-27.63.31-1.62.63-3.09.93-4.37s.54-2.4.77-3.29.37-1.53.5-2.08a3.1,3.1,0,0,0,.13-.74,3.75,3.75,0,0,0-.26.7c-.16.54-.37,1.22-.62,2s-.56,2-.88,3.27-.69,2.74-1,4.37A239.75,239.75,0,0,0,108.43,388c-1.1,10.08-1.6,19.26-1.65,25.91,0,3.32,0,6,.12,7.87,0,.87.1,1.58.13,2.14A3.58,3.58,0,0,0,107.12,424.64Z" style="fill:#263238"></path><path d="M107.17,406.94a16.71,16.71,0,0,0,0-2.24c-.08-1.43-.28-3.51-.68-6.05a80.47,80.47,0,0,0-2-8.81,72.49,72.49,0,0,0-3.69-10.43A55.58,55.58,0,0,0,90,362.55a29.41,29.41,0,0,0-2.55-2.37c-.39-.33-.74-.66-1.09-.92l-1-.68a13.8,13.8,0,0,0-1.88-1.2,63.18,63.18,0,0,1,6.17,5.5,58.52,58.52,0,0,1,10.55,16.79A82.91,82.91,0,0,1,103.91,390a86.48,86.48,0,0,1,2.09,8.72c.46,2.52.73,4.57.89,6A13,13,0,0,0,107.17,406.94Z" style="fill:#263238"></path><polygon points="90.05 438.17 91.83 462.47 123.05 462.47 124.83 438.17 90.05 438.17" style="fill:#263238"></polygon><rect x="87.04" y="428.59" width="41.51" height="9.58" style="fill:#263238"></rect><polygon points="87.04 461.54 87.04 464.2 88.99 464.2 127.86 464.2 127.86 461.54 87.04 461.54" style="fill:#455a64"></polygon><polygon points="90.9 468.87 88.99 464.2 126.38 464.2 124.15 468.87 90.9 468.87" style="fill:#455a64"></polygon><path d="M124.24,446.11s0,.08-.14.22-.28.37-.47.62l-1.82,2.33-.08.1-.08-.1-4.46-6.19h.25l-4.4,6.23-.13.2-.16-.18c-1.62-1.94-3.39-4-5.22-6.21h.3l-.28.36-4.67,5.85-.15.2-.15-.2c-1.58-2.25-3.06-4.34-4.4-6.23h.26L93,449.29l-.1.11-.07-.13-1.7-2.85-.44-.76a1.13,1.13,0,0,1-.13-.27,1.47,1.47,0,0,1,.18.24c.13.19.29.43.48.73l1.79,2.8h-.17l5.33-6.25.13-.16.13.17,4.44,6.2h-.3l4.65-5.86.29-.36.15-.18.15.18c1.83,2.18,3.59,4.28,5.2,6.22h-.29c1.61-2.24,3.1-4.33,4.45-6.2l.13-.18.12.18,4.38,6.25h-.16l1.89-2.26.51-.59A1,1,0,0,1,124.24,446.11Z" style="fill:#e0e0e0"></path><path d="M125.26,438c0,.1-7.82.19-17.47.19s-17.48-.09-17.48-.19,7.82-.2,17.48-.2S125.26,437.9,125.26,438Z" style="fill:#455a64"></path><path d="M126.84,464.46c0,.11-8.51.19-19,.19s-19-.08-19-.19,8.5-.2,19-.2S126.84,464.35,126.84,464.46Z" style="fill:#263238"></path></g></svg>